<diagram id="UvzQmkRbLa8ZX5Ics2AD" name="Página-1">
  <mxGraphModel dx="1092" dy="566" grid="1" gridSize="10" guides="1" tooltips="1" connect="1" arrows="1" fold="1" page="1" pageScale="1" pageWidth="827" pageHeight="1169" math="0" shadow="0">
    <root>
      <mxCell id="0" />
      <mxCell id="1" parent="0" />
      <mxCell id="2" value="Arquitecturas de Software" style="ellipse;whiteSpace=wrap;html=1;" vertex="1" parent="1">
        <mxGeometry x="480" y="60" width="140" height="50" as="geometry" />
      </mxCell>
      <mxCell id="3" value="Microservicios" style="rounded=1;whiteSpace=wrap;html=1;" vertex="1" parent="1">
        <mxGeometry x="220" y="180" width="140" height="50" as="geometry" />
      </mxCell>
      <mxCell id="4" value="Cliente – Servidor" style="rounded=1;whiteSpace=wrap;html=1;" vertex="1" parent="1">
        <mxGeometry x="740" y="180" width="140" height="50" as="geometry" />
      </mxCell>
      <mxCell id="5" value="Peer to Peer" style="rounded=1;whiteSpace=wrap;html=1;" vertex="1" parent="1">
        <mxGeometry x="220" y="300" width="140" height="50" as="geometry" />
      </mxCell>
      <mxCell id="6" value="Monolítica" style="rounded=1;whiteSpace=wrap;html=1;" vertex="1" parent="1">
        <mxGeometry x="740" y="300" width="140" height="50" as="geometry" />
      </mxCell>
      <mxCell id="7" value="Arquitectura por Capas" style="rounded=1;whiteSpace=wrap;html=1;" vertex="1" parent="1">
        <mxGeometry x="220" y="420" width="140" height="50" as="geometry" />
      </mxCell>
      <mxCell id="8" value="SOA" style="rounded=1;whiteSpace=wrap;html=1;" vertex="1" parent="1">
        <mxGeometry x="740" y="420" width="140" height="50" as="geometry" />
      </mxCell>
      <mxCell id="9" style="edgeStyle=orthogonalEdgeStyle;rounded=0;orthogonalLoop=1;jettySize=auto;html=1;" edge="1" parent="1" source="2" target="3">
        <mxGeometry relative="1" as="geometry" />
      </mxCell>
      <mxCell id="10" style="edgeStyle=orthogonalEdgeStyle;rounded=0;orthogonalLoop=1;jettySize=auto;html=1;" edge="1" parent="1" source="2" target="4">
        <mxGeometry relative="1" as="geometry" />
      </mxCell>
      <mxCell id="11" style="edgeStyle=orthogonalEdgeStyle;rounded=0;orthogonalLoop=1;jettySize=auto;html=1;" edge="1" parent="1" source="3" target="5">
        <mxGeometry relative="1" as="geometry" />
      </mxCell>
      <mxCell id="12" style="edgeStyle=orthogonalEdgeStyle;rounded=0;orthogonalLoop=1;jettySize=auto;html=1;" edge="1" parent="1" source="4" target="6">
        <mxGeometry relative="1" as="geometry" />
      </mxCell>
      <mxCell id="13" style="edgeStyle=orthogonalEdgeStyle;rounded=0;orthogonalLoop=1;jettySize=auto;html=1;" edge="1" parent="1" source="5" target="7">
        <mxGeometry relative="1" as="geometry" />
      </mxCell>
      <mxCell id="14" style="edgeStyle=orthogonalEdgeStyle;rounded=0;orthogonalLoop=1;jettySize=auto;html=1;" edge="1" parent="1" source="6" target="8">
        <mxGeometry relative="1" as="geometry" />
      </mxCell>
      <mxCell id="15" value="Definición:&#10;- Componentes auto-suficientes&#10;- Evolucionan de forma independiente&#10;&#10;Ventajas:&#10;- Encapsulados&#10;- Evolucionan rápido&#10;- Uso de distintas BD&#10;&#10;Desventajas:&#10;- Requiere buen equipo" style="rounded=1;whiteSpace=wrap;html=1;" vertex="1" parent="3">
        <mxGeometry x="10" y="180" width="200" height="250" as="geometry" />
      </mxCell>
      <mxCell id="16" value="Definición:&#10;- Servidor proporciona servicio a cliente&#10;- Datos en un mismo lugar&#10;&#10;Ventajas:&#10;- Datos en un lugar&#10;- Poco mantenimiento&#10;- Recuperación fácil&#10;&#10;Desventajas:&#10;- Vulnerable a virus&#10;- Ataques DoS&#10;- Modificación datos" style="rounded=1;whiteSpace=wrap;html=1;" vertex="1" parent="4">
        <mxGeometry x="600" y="180" width="200" height="250" as="geometry" />
      </mxCell>
      <mxCell id="17" value="Definición:&#10;- Red descentralizada&#10;- Todos comparten recursos&#10;&#10;Ventajas:&#10;- Menor costo&#10;&#10;Desventajas:&#10;- Propagación de virus" style="rounded=1;whiteSpace=wrap;html=1;" vertex="1" parent="5">
        <mxGeometry x="10" y="300" width="200" height="150" as="geometry" />
      </mxCell>
      <mxCell id="18" value="Definición:&#10;- Aplicación autosuficiente&#10;- Funciona de forma independiente&#10;&#10;Ventajas:&#10;- Autosuficiente&#10;- Desarrollo rápido&#10;- Escalabilidad&#10;&#10;Desventajas:&#10;- Dependencia stack&#10;- Complejidad dev&#10;- Falla global" style="rounded=1;whiteSpace=wrap;html=1;" vertex="1" parent="6">
        <mxGeometry x="600" y="300" width="200" height="200" as="geometry" />
